<?xml version="1.0" encoding="utf-8"?>
<!-- Generator: Adobe Illustrator 24.3.0, SVG Export Plug-In . SVG Version: 6.00 Build 0)  -->
<svg version="1.1" id="Capa_1" xmlns="http://www.w3.org/2000/svg" xmlns:xlink="http://www.w3.org/1999/xlink" x="0px" y="0px"
	 viewBox="0 0 2121.9 712.1" style="enable-background:new 0 0 2121.9 712.1;" xml:space="preserve">
<style type="text/css">
	.st0{fill-rule:evenodd;clip-rule:evenodd;fill:#00AAC9;}
	.st1{fill:#231F20;}
	.st2{fill:#FFE600;}
</style>
<g>
	<polygon class="st0" points="261.8,131 297,131 350.1,276 402.8,131 438,131 362.8,317.5 332.5,317.5 	"/>
	<path class="st0" d="M511.8,65.5v26.2h-32.7V65.5H511.8z M511.8,131v186.5h-32.7V131L511.8,131z"/>
	<path class="st0" d="M704.9,285.7c-15.1,3.5-30.6,5.2-46.2,5.3c-47.6,0-71.5-23.2-71.5-69.6c0-41.7,24-62.6,71.6-62.6
		c15.5,0.1,31,1.9,46.1,5.3v-26.5c-16.3-3.6-33-5.3-49.7-5.3c-67,0-100.7,29.7-100.7,89c0,64.1,33.8,96.1,100.7,96.1
		c16.7,0.1,33.3-1.7,49.6-5.3L704.9,285.7z"/>
	<path class="st0" d="M823.2,242.4c37,0,55.5-22.3,55.5-66.8c0-43.6-18.5-65.4-55.5-65.4s-55.5,21.8-55.5,65.4
		C767.7,220.1,786.2,242.4,823.2,242.4z M735.1,176.3c0-61.7,29.4-92.5,88.1-92.5c58.7,0,88.1,30.9,88.2,92.5
		c0,61.6-29.4,92.4-88.2,92.4C767.1,268.6,737.7,237.9,735.1,176.3z"/>
	<path class="st0" d="M956.9,317.5V131h20.6l5.5,23.9c21.3-15.5,42.4-22.9,63.3-22.9c23.3,0,39.8,8.6,49.5,25.5
		c23.6-16.9,46.4-25.3,67-25.3c39,0,59.1,23.5,59.1,70.4v114.8h-32.7V200.9c0-27.6-12.3-41.4-35.6-41.4c-17.4,0-33.1,8-49.5,24v134
		h-32.7V201.4c0-28-10.6-42-33.6-42c-18.3,0-35.1,8-48.2,24v134.1H956.9z"/>
	<path class="st0" d="M1274.3,101.5h19.8l7,29.5h41.9v29.5h-36V265c0,17.3,6.7,26.3,21.6,26.3h14.4v26.2h-22.9
		c-31,0-45.9-16.7-45.9-50V101.5z"/>
	<path class="st0" d="M1536.6,235.7H1412c0,36,24,56,71.7,56c16.3,0,32.8-2.5,49.1-6v26.5c-16.4,3.5-36.3,5.3-59.7,5.3
		c-62.4,0-93.6-31.6-93.7-94.7c0-60.3,29.5-89.7,88.6-89.7C1524.7,133.1,1547.5,167,1536.6,235.7z M1412,206.2h94.8
		c1.6-32.7-13-48.7-44.1-48.7C1431,157.6,1414.1,173.5,1412,206.2z"/>
	<path class="st0" d="M1729.2,285.7c-15.1,3.4-30.5,5.2-46,5.3c-47.6,0-71.4-23.2-71.5-69.6c0-41.7,23.9-62.6,71.5-62.6
		c15.5,0.1,30.9,1.9,46,5.3v-26.5c-16.3-3.6-32.9-5.3-49.6-5.3c-67,0-100.5,29.7-100.6,89c0,64.1,33.5,96.1,100.6,96.1
		c16.6,0.1,33.2-1.7,49.5-5.3L1729.2,285.7z"/>
	<path class="st0" d="M1768.4,317.5v-252h32.7v86.9c19.6-13.4,40.6-20.1,63.3-20.1c42.7,0,64.3,23,64.3,68.9v116.3H1896V200.7
		c0-27.5-14-41.2-41.4-41.2c-18.7,0-37.2,7.8-53.5,23.4v134.6H1768.4z"/>
	<path class="st0" d="M1005.2,96.9C947.7,70.3,890,56.5,832,55.5c-58-1-116.2,10.8-174.5,35.4l-0.6,30.9
		c58.3-24.6,116.5-36.4,174.5-35.4c58,1,115.7,14.8,173.2,41.5L1005.2,96.9z"/>
	<path class="st1" d="M334.1,414.9h10.1l16.4,27.5l16.4-27.5h10.1V473h-9.5v-41.7l-17,27.4h-0.3l-16.9-27.2V473h-9.3V414.9z"/>
	<path class="st1" d="M398.7,414.9h40v9.1h-30.5v15.1h27v9.1h-27v15.6H439v9.2h-40.3V414.9z"/>
	<path class="st1" d="M448,414.9h10.1l16.4,27.5l16.4-27.5H501V473h-9.5v-41.7l-17,27.4h-0.3l-16.9-27.2V473H448V414.9z"/>
	<path class="st1" d="M512.5,414.9h24.2c6.2,0,11,1.8,14.1,5.1c2.4,2.6,3.7,6.1,3.6,9.6v0.2c0,7-3.7,10.7-7.7,13
		c6.3,2.3,10.7,6.2,10.7,14.1v0.1c0,10.4-7.9,15.9-20,15.9h-25L512.5,414.9z M545,431.3c0-4.6-3.4-7.4-9.5-7.4h-13.7v15.4h12.9
		c6.1,0,10.2-2.6,10.2-7.9L545,431.3z M536.9,448h-15v15.9h15.7c6.5,0,10.4-2.7,10.4-8v-0.2C548,450.9,544.3,448,536.9,448z"/>
	<path class="st1" d="M565.8,414.9h40v9.1h-30.5v15.1h27v9.1h-27v15.6h30.9v9.2h-40.4V414.9z"/>
	<path class="st1" d="M615.2,414.9h24c6.8,0,12.1,2.2,15.6,5.8c3,3.5,4.6,7.9,4.5,12.5v0.2c0,9.5-5.3,15.3-12.8,17.6l14.6,22h-11.3
		l-13.2-20.3h-11.9V473h-9.5V414.9z M638.5,443.6c6.8,0,11.1-3.8,11.1-9.7v-0.2c0-6.2-4.2-9.6-11.2-9.6h-13.8v19.5H638.5z"/>
	<path class="st1" d="M687,444.1v-0.2c0-16.4,11.7-30,28.3-30s28.1,13.5,28.1,29.9v0.2c0,16.4-11.7,30-28.3,30S687,460.4,687,444.1z
		 M733.4,444.1v-0.2c0-11.3-7.6-20.7-18.3-20.7s-18.2,9.2-18.2,20.5v0.2c0,11.3,7.6,20.6,18.3,20.6S733.4,455.4,733.4,444.1
		L733.4,444.1z"/>
	<path class="st1" d="M752.5,414.9h40.1v9.3H762V440h27.2v9.3H762V473h-9.5L752.5,414.9z"/>
	<path class="st1" d="M821.5,414.9h24.2c6.2,0,11,1.8,14.1,5.1c2.4,2.6,3.7,6.1,3.6,9.6v0.2c0,7-3.7,10.7-7.7,13
		c6.3,2.3,10.7,6.2,10.7,14.1v0.1c0,10.4-7.9,15.9-20,15.9h-25L821.5,414.9z M854,431.3c0-4.6-3.4-7.4-9.5-7.4h-13.7v15.4h12.9
		c6.1,0,10.2-2.6,10.2-7.9L854,431.3z M845.9,448h-15v15.9h15.7c6.5,0,10.4-2.7,10.4-8v-0.2C857,450.9,853.3,448,845.9,448z"/>
	<path class="st1" d="M894,414.4h8.8l23.7,58.6h-10l-5.5-14h-25.5l-5.5,14h-9.7L894,414.4z M907.5,449.9l-9.3-23.2l-9.2,23.2H907.5z
		"/>
	<path class="st1" d="M928.8,464.5l5.7-7.3c5.2,4.8,10.4,7.5,17,7.5c5.8,0,9.5-3,9.5-7.3v-0.2c0-4.1-2.2-6.4-12.2-8.9
		c-11.5-3-18-6.6-18-17.4v-0.2c0-10,7.7-16.9,18.4-16.9c7.2-0.1,14.3,2.5,19.7,7.3l-5.1,7.7c-4.8-3.9-9.7-6-14.6-6
		c-5.5,0-8.8,3.1-8.8,6.9v0.2c0,4.5,2.5,6.5,12.9,9.1c11.4,3,17.2,7.4,17.2,17v0.2c0,10.9-7.9,17.3-19.2,17.3
		C942.9,473.7,934.8,470.4,928.8,464.5z"/>
	<path class="st1" d="M1028.1,474.7l-6.5-6.2c-4.7,3.6-10.5,5.5-16.4,5.5c-16.6,0-28.1-13.5-28.1-29.9v-0.2c0-16.4,11.7-30,28.3-30
		s28.1,13.5,28.1,29.9v0.2c0,6.4-1.9,12.6-5.5,17.8l6.2,5.6L1028.1,474.7z M1014.7,461.8l-9.3-8.5l6.1-7.5l9.5,9.3
		c1.8-3.4,2.7-7.2,2.6-11v-0.2c0-11.3-7.6-20.7-18.3-20.7s-18.2,9.2-18.2,20.5v0.2c0,11.3,7.6,20.6,18.3,20.6
		C1008.6,464.5,1011.9,463.6,1014.7,461.8L1014.7,461.8z"/>
	<path class="st1" d="M1041.8,448.3v-33.4h9.5v33c0,10.8,5.2,16.5,13.6,16.5s13.6-5.4,13.6-16.1v-33.4h9.5v32.9
		c0,17.3-9.1,26.1-23.2,26.1S1041.8,465.1,1041.8,448.3z"/>
	<path class="st1" d="M1098.6,414.9h40v9.1h-30.5v15.1h27v9.1h-27v15.6h30.9v9.2h-40.4V414.9z"/>
	<path class="st1" d="M1168.7,414.9h24c6.8,0,12.1,2.2,15.6,5.8c3,3.5,4.6,7.9,4.5,12.5v0.2c0,9.5-5.3,15.3-12.8,17.6l14.6,22h-11.2
		l-13.2-20.2h-11.9V473h-9.5L1168.7,414.9z M1192.1,443.6c6.8,0,11.1-3.8,11.1-9.7v-0.2c0-6.2-4.2-9.6-11.2-9.6h-13.8v19.5H1192.1z"
		/>
	<path class="st1" d="M1222.1,414.9h40v9.1h-30.5v15.1h27v9.1h-27v15.6h30.9v9.2h-40.4L1222.1,414.9z"/>
	<path class="st1" d="M1267.8,464.5l5.7-7.3c5.2,4.8,10.4,7.5,17,7.5c5.8,0,9.6-3,9.6-7.3v-0.2c0-4.1-2.2-6.4-12.2-8.9
		c-11.5-3-18-6.6-18-17.4v-0.2c0-10,7.7-16.9,18.4-16.9c7.2-0.1,14.2,2.5,19.6,7.3l-5.1,7.7c-4.8-3.9-9.7-6-14.6-6
		c-5.6,0-8.8,3.1-8.8,6.9v0.2c0,4.5,2.5,6.5,12.9,9.1c11.4,3,17.2,7.4,17.2,17v0.2c0,10.9-7.9,17.3-19.2,17.3
		C1281.8,473.7,1273.8,470.4,1267.8,464.5z"/>
	<path class="st1" d="M1318.4,414.9h40v9.1h-30.5v15.1h27v9.1h-27v15.6h30.9v9.2h-40.4L1318.4,414.9z"/>
	<path class="st1" d="M1386.8,414.4h8.8l23.7,58.6h-10l-5.5-14h-25.5l-5.5,14h-9.7L1386.8,414.4z M1400.4,449.9l-9.3-23.2l-9.2,23.2
		H1400.4z"/>
	<path class="st1" d="M1426.3,414.9h24c6.8,0,12.1,2.2,15.6,5.8c3,3.5,4.6,7.9,4.5,12.5v0.2c0,9.5-5.3,15.3-12.8,17.6l14.6,22h-11.2
		l-13.2-20.2h-11.9V473h-9.5L1426.3,414.9z M1449.6,443.6c6.8,0,11.1-3.8,11.1-9.7v-0.2c0-6.2-4.2-9.6-11.2-9.6h-13.8v19.5H1449.6z"
		/>
	<path class="st1" d="M1477.3,444.1v-0.2c0-16.5,11.5-30,27.8-30c9.9,0,15.9,3.7,21.1,9l-6.1,7.5c-4.3-4.3-8.9-7.2-15.1-7.2
		c-10.2,0-17.8,9.1-17.8,20.5v0.2c0,11.4,7.5,20.6,17.8,20.6c6.6,0,10.9-2.8,15.5-7.5l6.1,6.6c-5.6,6.3-11.8,10.3-21.9,10.3
		C1489,473.9,1477.3,460.8,1477.3,444.1z"/>
	<path class="st1" d="M1535.8,414.9h9.5V439h25.8v-24.1h9.5V473h-9.5v-24.5h-25.7V473h-9.5L1535.8,414.9z"/>
	<path class="st1" d="M364.3,558.4c-4.6,4.7-10,7.5-16.5,7.5c-10.1,0-17.6-6.5-17.6-16.6v-0.2c0-7.5,4.1-12.9,11.5-16.3
		c-3.1-4.2-4.5-7.9-4.5-12.1v-0.2c0-7.8,5.9-14.6,15.5-14.6c8.5,0,14.3,6.2,14.3,14v0.2c0,7.6-4.7,12.2-11.9,15.1l9.2,10.1
		c2.2-3.6,4.1-7.3,5.8-11.2l7.2,4.1c-2.1,4.6-4.5,9-7.3,13.2l8.5,9.3l-7.1,5.5L364.3,558.4z M358.9,552.4l-12-13.2
		c-5,2.3-7.2,5.9-7.2,9.6v0.2c0,4.9,3.8,8.5,9,8.5C352.5,557.5,355.8,555.6,358.9,552.4L358.9,552.4z M358.6,520.8v-0.2
		c0-3.9-2.5-6.6-6.1-6.6c-3.9,0-6.5,2.9-6.5,7v0.2c0,2.9,1.1,5.1,4.1,8.6C355.7,527.7,358.6,525,358.6,520.8L358.6,520.8z"/>
	<path class="st1" d="M416.4,516.5h-17.1v-9.5H443v9.5h-17.1v48.6h-9.5L416.4,516.5z"/>
	<path class="st1" d="M450.8,507.1h40v9.1h-30.5v15.1h27v9.1h-27V556h30.9v9.1h-40.4V507.1z"/>
	<path class="st1" d="M497.7,536.3v-0.2c0-16.5,11.5-30,27.8-30c9.9,0,16,3.7,21.1,9l-6.1,7.5c-4.3-4.3-8.9-7.2-15.1-7.2
		c-10.2,0-17.8,9.1-17.8,20.5v0.2c0,11.4,7.5,20.6,17.8,20.6c6.6,0,10.9-2.8,15.5-7.5l6.1,6.6c-5.6,6.3-11.8,10.3-21.9,10.3
		C509.4,566.2,497.7,553,497.7,536.3z"/>
	<path class="st1" d="M556.1,507.1h9.5v24.2h25.7v-24.2h9.5v58.1h-9.5v-24.5h-25.7v24.5h-9.5V507.1z"/>
	<path class="st1" d="M613.9,507.1h8.8l28.9,40.2v-40.2h9.3v58.1H653l-29.7-41.3v41.3H614L613.9,507.1z"/>
	<path class="st1" d="M671.6,536.3v-0.2c0-16.3,11.7-30,28.3-30S728,519.6,728,536v0.2c0,16.3-11.7,30-28.3,30
		S671.6,552.6,671.6,536.3z M718.1,536.3v-0.2c0-11.3-7.6-20.7-18.3-20.7s-18.2,9.2-18.2,20.5v0.2c0,11.3,7.6,20.6,18.3,20.6
		S718.1,547.6,718.1,536.3z"/>
	<path class="st1" d="M738.7,507.1h9.5v48.8h28.3v9.3h-37.8V507.1z"/>
	<path class="st1" d="M780.2,536.3v-0.2c0-16.3,11.7-30,28.3-30s28.1,13.5,28.1,29.9v0.2c0,16.3-11.7,30-28.3,30
		S780.2,552.6,780.2,536.3z M826.6,536.3v-0.2c0-11.3-7.6-20.7-18.3-20.7s-18.2,9.2-18.2,20.5v0.2c0,11.3,7.6,20.6,18.3,20.6
		S826.6,547.6,826.6,536.3z"/>
	<path class="st1" d="M844.9,536.3v-0.2c0-16.3,11.5-30,27.8-30c9.4,0,15.2,2.8,20.7,7.9l-6,7.7c-4.2-3.8-8.2-6.2-15.1-6.2
		c-9.9,0-17.5,9.4-17.5,20.5v0.2c0,12,7.3,20.7,18.3,20.7c4.7,0,9.3-1.5,13-4.4v-10.9h-13.8v-8.9h23v24.4c-6.1,5.7-14.1,9-22.5,9
		C856,566.2,844.9,553.2,844.9,536.3z"/>
	<path class="st1" d="M922,542.3l-21.4-35.2h11.2l15,25.6l15.2-25.6H953L931.5,542v23.2H922V542.3z"/>
	<path class="st1" d="M998.9,506.6h8.8l23.7,58.5h-10l-5.5-14h-25.5l-5.5,14h-9.7L998.9,506.6z M1012.4,542.1l-9.3-23.2l-9.2,23.2
		H1012.4z"/>
	<path class="st1" d="M1038.3,507.1h9.5v48.8h28.3v9.3h-37.8V507.1z"/>
	<path class="st1" d="M1083.7,507.1h9.5v48.8h28.3v9.3h-37.8V507.1z"/>
	<path class="st1" d="M1129.6,507.1h9.5v58.1h-9.5V507.1z"/>
	<path class="st1" d="M1170.3,506.6h8.8l23.7,58.5h-10l-5.5-14h-25.5l-5.6,14h-9.7L1170.3,506.6z M1183.8,542.1l-9.3-23.2l-9.2,23.2
		H1183.8z"/>
	<path class="st1" d="M1209.7,507.1h8.8l28.9,40.2v-40.2h9.3v58.1h-7.9l-29.7-41.3v41.3h-9.3V507.1z"/>
	<path class="st1" d="M1265.9,536.3v-0.2c0-16.5,11.5-30,27.8-30c9.9,0,16,3.7,21.1,9l-6.1,7.5c-4.3-4.3-8.9-7.2-15.1-7.2
		c-10.2,0-17.8,9.1-17.8,20.5v0.2c0,11.4,7.5,20.6,17.8,20.6c6.6,0,10.9-2.8,15.5-7.5l6.1,6.6c-5.6,6.3-11.8,10.3-21.9,10.3
		C1277.6,566.2,1265.9,553,1265.9,536.3z"/>
	<path class="st1" d="M1322.8,507.1h40v9.1h-30.5v15.1h27v9.1h-27V556h30.9v9.1h-40.4L1322.8,507.1z"/>
	<rect x="330.2" y="623.3" class="st2" width="262.2" height="33.3"/>
</g>
</svg>
